<svg width="915" height="520" viewBox="0 0 915 520" fill="none" xmlns="http://www.w3.org/2000/svg">
<path d="M915 497.531H0V519.263H915V497.531Z" fill="#D8C5BF"/>
<path d="M865.81 410.802C603.446 410.351 341.093 409.913 78.7294 409.463C52.4863 438.814 26.2431 468.18 0 497.531H915C898.607 468.617 882.203 439.702 865.81 410.788V410.802Z" fill="#FFF4F0"/>
<path d="M758.752 442.333H743.512C741.988 442.229 739.161 441.803 736.739 439.727C735.732 438.858 733.988 437.007 732.93 432.776C730.356 422.473 732.337 399.928 732.506 398.025H768.911C769.055 400.458 770.215 420.865 768.911 431.908C768.666 433.967 768.192 436.946 765.923 439.275C763.535 441.725 760.36 442.22 758.752 442.333Z" fill="#7F4EC3"/>
<path d="M763.603 401.5H734.817" stroke="#ECE4F8" stroke-width="2" stroke-miterlimit="10"/>
<path d="M742.014 438.423C741.201 438.006 739.025 436.755 737.781 434.079C737.078 432.559 736.968 431.213 736.934 430.604C736.714 426.973 736.519 416.13 736.511 401.5" stroke="#ECE4F8" stroke-width="4" stroke-miterlimit="10"/>
<path d="M767.955 406.261C770.029 406.27 772.103 406.279 774.186 406.279C775.879 406.279 777.572 406.279 779.266 406.279L777.996 418.007C777.42 420.231 775.947 424.619 772.069 428.432C770.114 430.352 768.115 431.577 766.566 432.342" stroke="#7F4EC3" stroke-width="3" stroke-miterlimit="10"/>
<path d="M784.015 441.464C784.066 442.507 767.845 444.983 750.15 444.939C732.938 444.905 717.081 442.489 717.131 441.464C717.174 440.604 728.527 440.595 750.15 440.595C772.374 440.595 783.973 440.595 784.015 441.464Z" fill="#7F4EC3"/>
<path d="M737.357 440.595H764.45" stroke="#42210B" stroke-width="0.25" stroke-miterlimit="10"/>
<path d="M769.199 444.071H731.947V445.809H769.199V444.071Z" fill="#6642A0"/>
<path d="M720.848 441.899C724.006 442.307 726.851 442.585 729.314 442.768C734.462 443.159 738.5 443.211 743.826 443.263C747.001 443.298 749.845 443.289 752.292 443.263" stroke="#ECE4F8" stroke-width="0.5" stroke-miterlimit="10"/>
<path d="M749.854 374.804C749.625 377.524 748.609 381.433 744.816 385.994C745.172 383.596 745.502 380.695 745.654 377.385C745.756 375.117 745.874 372.502 745.654 369.635C744.935 360.435 741.37 357.515 743.14 353.276C743.614 352.146 744.655 350.461 747.339 348.967C747.026 351.512 746.746 355.448 747.339 360.157C748.228 367.168 750.277 369.835 749.854 374.796V374.804Z" fill="#B295DA"/>
<path d="M759.497 369.878C759.218 373.171 757.99 377.923 753.393 383.457C753.824 380.547 754.222 377.028 754.409 373.015C754.536 370.26 754.68 367.089 754.409 363.614C753.537 352.45 749.21 348.915 751.352 343.771C751.928 342.399 753.19 340.357 756.441 338.55C756.06 341.643 755.721 346.412 756.441 352.129C757.516 360.634 759.996 363.866 759.497 369.887V369.878Z" fill="#B295DA"/>
<path d="M678.677 457.302L653.327 457.745C649.341 457.814 646.396 455.65 646.778 453.041L651.776 418.547C651.955 417.303 654.248 416.275 656.869 416.229L673.527 415.939C676.148 415.893 678.476 416.84 678.704 418.077L685.039 452.373C685.518 454.967 682.664 457.233 678.677 457.302Z" fill="#FFF4F0"/>
<path d="M662.903 465.782L673.94 465.59" stroke="#FFF4F0" stroke-miterlimit="10"/>
<path d="M688.665 457.282L679.341 415.216C679.102 414.129 676.996 413.3 674.666 413.341L653.491 413.71C651.155 413.751 649.086 414.653 648.878 415.748L641.027 458.113C640.513 460.893 643.272 463.209 647.187 463.141L682.678 462.521C686.593 462.453 689.27 460.042 688.659 457.282L688.665 457.282ZM677.105 455.539L652.979 455.961C649.18 456.027 646.38 453.964 646.744 451.484L651.499 418.641C651.672 417.456 653.85 416.475 656.348 416.431L672.21 416.154C674.708 416.111 676.918 417.015 677.14 418.193L683.167 450.841C683.624 453.314 680.904 455.467 677.112 455.533L677.105 455.539Z" fill="#301F3F"/>
<path d="M671.371 449.903L664.808 452.188L665.465 453.093L671.996 450.829L671.371 449.896L671.371 449.903ZM673.14 451.829L667.668 455.109L666.73 454.376L672.207 451.064L673.14 451.836L673.14 451.829ZM674.571 452.605L670.322 456.587L669.18 456.038L673.415 452.018L674.571 452.605ZM671.263 449.621L664.091 450.818L663.724 449.804L670.947 448.599L671.263 449.621ZM672.425 446.138L661.825 446.323L662.069 449.542L660.587 449.568L660.22 445.24L673.94 445.001L673.905 449.335L672.423 449.361L672.419 446.138L672.425 446.138ZM670.942 448.328L663.48 448.458L663.41 447.394L670.93 447.262L670.949 448.328L670.942 448.328Z" fill="#7856A4"/>
<path d="M679.52 440.006L656.441 440.409C655.397 440.427 654.589 439.931 654.652 439.317L654.76 438.295C654.824 437.696 655.704 437.2 656.718 437.183L679.124 436.792C680.138 436.774 681.042 437.238 681.119 437.835L681.262 438.852C681.347 439.464 680.564 439.987 679.513 440.006L679.52 440.006Z" stroke="#301F3F" stroke-miterlimit="10"/>
<path d="M655.692 430.626L680.193 430.198" stroke="#301F3F" stroke-miterlimit="10"/>
<path d="M655.273 432.901L680.692 432.457" stroke="#301F3F" stroke-miterlimit="10"/>
<path d="M655.934 428.354L679.872 427.936" stroke="#301F3F" stroke-miterlimit="10"/>
<path d="M656.484 420.432L679.045 419.994" stroke="#301F3F" stroke-miterlimit="10"/>
<path d="M656.145 424.331L679.52 423.886" stroke="#301F3F" stroke-miterlimit="10"/>
<path d="M656.395 422.495L679.206 421.993" stroke="#301F3F" stroke-miterlimit="10"/>
<path d="M657.116 415.043L677.953 414.679" stroke="#FFF4F0" stroke-miterlimit="10"/>
<path d="M662.903 465.782L673.94 465.59" stroke="#FFF4F0" stroke-miterlimit="10"/>
<path opacity="0.7" d="M84.1554 483.107C85.3916 475.511 85.8801 467.915 87.1163 460.319H51.5855C53.3102 467.915 53.5619 475.511 55.2866 483.107" fill="#E0623B"/>
<path d="M51.5855 443.862C51.5855 441.135 58.6325 438.165 68.2406 438.165C77.8487 438.165 87.1163 441.135 87.1163 443.862" fill="#8E4940"/>
<path opacity="0.7" d="M86.9009 458.354H51.3701C50.7927 457.1 50.0155 454.989 49.8897 452.277C49.7268 448.752 50.7483 446.033 51.3701 444.681H86.9009C87.5227 446.033 88.5442 448.752 88.3814 452.277C88.2555 454.989 87.4783 457.1 86.9009 458.354Z" fill="#FF7442"/>
<path d="M15.1802 369.966C25.2467 375.969 37.5313 384.622 49.8922 396.898C58.7395 405.681 65.6818 414.387 71.058 422.093" stroke="#6B837F" stroke-miterlimit="10"/>
<path d="M87.9906 330.871C84.9173 336.596 81.0228 344.78 77.7548 355.101C72.7766 370.809 71.7945 383.432 70.931 395.482C70.1097 406.881 69.8134 422.215 71.7861 440.346" stroke="#6B837F" stroke-miterlimit="10"/>
<path d="M118.046 386.038C110.257 393.475 104.026 400.069 99.4201 405.152C90.2934 415.229 87.7027 419.217 85.874 422.527C81.9626 429.599 80.083 436.176 79.101 440.772" stroke="#6B837F" stroke-miterlimit="10"/>
<path d="M118.046 430.346C112.619 430.086 106.667 430.034 100.267 430.346C93.8409 430.659 87.8891 431.285 82.4876 432.084" stroke="#6B837F" stroke-miterlimit="10"/>
<path d="M32.5363 407.758C35.9652 410.26 40.8756 414.195 46.2433 419.921C46.5142 420.216 47.5471 421.311 48.9864 422.962C52.3814 426.854 57.1902 432.805 62.6934 441.206" stroke="#6B837F" stroke-miterlimit="10"/>
<path d="M105.281 355.451C105.147 354.319 101.927 353.886 101.002 353.757C93.9108 352.792 79.8317 367.908 72.2518 376.666C82.3041 370.369 92.3489 364.072 102.401 357.775C103.186 357.433 105.392 356.415 105.281 355.451Z" fill="#72A79B"/>
<path d="M104.011 373.956C103.877 372.824 100.657 372.391 99.7321 372.262C92.6407 371.297 78.5617 386.413 70.9818 395.171C81.034 388.874 91.0789 382.577 101.131 376.28C101.916 375.938 104.122 374.92 104.011 373.956Z" fill="#72A79B"/>
<path d="M34.0596 362.661C34.1929 361.53 37.4129 361.097 38.3381 360.968C45.4295 360.003 59.5086 375.119 67.0885 383.877C57.0362 377.58 46.9914 371.283 36.9391 364.986C36.1545 364.644 33.9486 363.626 34.0596 362.661Z" fill="#72A79B"/>
<path d="M49.5446 356.232C49.626 355.533 51.6246 355.26 52.1946 355.184C56.5841 354.592 65.304 363.95 70.0044 369.373C63.7791 365.476 57.5538 361.572 51.3285 357.675C50.84 357.463 49.478 356.832 49.5446 356.232Z" fill="#72A79B"/>
<path d="M58.3519 341.404C58.6553 340.773 60.6243 341.199 61.1869 341.328C65.5246 342.277 70.684 354.089 73.3414 360.811C68.7446 355.001 64.1552 349.19 59.5584 343.379C59.1661 343.014 58.0854 341.951 58.3445 341.412L58.3519 341.404Z" fill="#72A79B"/>
<path d="M96.1036 341.743C95.9555 341.051 93.9421 340.998 93.3647 340.983C88.9382 340.862 81.2103 351.101 77.0946 356.995C82.8906 352.453 88.6865 347.911 94.4825 343.368C94.9488 343.11 96.2368 342.335 96.111 341.743H96.1036Z" fill="#72A79B"/>
<path d="M67.4318 339.598C67.6242 339.203 68.853 339.468 69.2083 339.544C71.9175 340.137 75.1449 347.52 76.8104 351.728C73.9383 348.097 71.0663 344.459 68.1942 340.828C67.9499 340.6 67.2763 339.932 67.4392 339.598H67.4318Z" fill="#72A79B"/>
<path d="M22.4243 367.5C22.639 367.059 24.001 367.363 24.3933 367.447C27.3986 368.1 30.9813 376.296 32.8245 380.96C29.6415 376.926 26.4512 372.901 23.2682 368.867C22.9943 368.616 22.2467 367.88 22.4317 367.5H22.4243Z" fill="#72A79B"/>
<path d="M70.3866 330.206C70.5791 329.811 71.8078 330.077 72.1631 330.153C74.8724 330.745 78.0997 338.129 79.7652 342.337C76.8932 338.706 74.0211 335.067 71.149 331.437C70.9048 331.209 70.2311 330.54 70.394 330.206H70.3866Z" fill="#72A79B"/>
<path d="M95.1173 321.605C94.9248 321.21 93.6961 321.476 93.3408 321.552C90.6315 322.144 87.4042 329.528 85.7386 333.736C88.6107 330.105 91.4828 326.466 94.3549 322.836C94.5991 322.608 95.2727 321.939 95.1099 321.605H95.1173Z" fill="#72A79B"/>
<path d="M97.3169 333.869C97.3391 333.428 96.1326 333.048 95.7847 332.942C93.1347 332.114 86.828 336.976 83.3933 339.832C87.62 338.077 91.8467 336.322 96.0734 334.568C96.3917 334.492 97.3021 334.241 97.3169 333.869Z" fill="#72A79B"/>
<path d="M51.0829 384.941C51.2679 384.303 53.1703 384.371 53.7107 384.394C57.8929 384.546 64.5772 394.679 68.1154 400.497C62.919 395.856 57.7153 391.215 52.5189 386.574C52.097 386.301 50.92 385.488 51.0754 384.941H51.0829Z" fill="#72A79B"/>
<path d="M99.1187 383.404C99.4296 383.1 100.496 383.791 100.799 383.988C103.138 385.508 103.664 393.59 103.797 398.124C102.331 393.696 100.873 389.26 99.4074 384.832C99.2594 384.528 98.8448 383.669 99.1113 383.404H99.1187Z" fill="#72A79B"/>
<path d="M92.8267 390.182C93.1524 389.901 94.1813 390.653 94.47 390.873C96.7203 392.537 96.7795 400.627 96.6463 405.161C95.4397 400.649 94.2405 396.137 93.034 391.625C92.9007 391.314 92.5454 390.425 92.8267 390.182Z" fill="#72A79B"/>
<path d="M85.4735 399.94C85.6289 399.613 86.6356 399.834 86.9243 399.902C89.1376 400.388 91.7728 406.419 93.1348 409.853C90.7883 406.883 88.4418 403.92 86.0952 400.95C85.8954 400.76 85.3476 400.221 85.4735 399.947V399.94Z" fill="#72A79B"/>
<path d="M122.978 390.079C123.001 389.639 121.794 389.259 121.446 389.152C118.796 388.324 112.49 393.186 109.055 396.042C113.282 394.287 117.508 392.533 121.735 390.778C122.053 390.702 122.964 390.451 122.978 390.079Z" fill="#72A79B"/>
<path d="M115.339 402.669C115.457 402.244 114.369 401.598 114.058 401.408C111.668 399.972 104.436 403.216 100.453 405.183C104.961 404.477 109.469 403.77 113.977 403.064C114.31 403.064 115.243 403.041 115.346 402.677L115.339 402.669Z" fill="#72A79B"/>
<path d="M99.3754 417.303C99.4642 416.984 98.6352 416.483 98.3983 416.346C96.5774 415.26 91.0775 417.721 88.05 419.218C91.4772 418.678 94.9045 418.139 98.3317 417.607C98.5834 417.607 99.294 417.584 99.368 417.311L99.3754 417.303Z" fill="#72A79B"/>
<path d="M104.049 410.787C104.138 410.468 103.309 409.967 103.072 409.83C101.251 408.744 95.7508 411.205 92.7233 412.702C96.1506 412.162 99.5778 411.623 103.005 411.091C103.257 411.091 103.967 411.069 104.041 410.795L104.049 410.787Z" fill="#72A79B"/>
<path d="M126.713 380.771C126.654 380.338 125.396 380.202 125.04 380.164C122.287 379.868 116.994 385.876 114.152 389.347C117.979 386.803 121.798 384.25 125.625 381.706C125.929 381.561 126.765 381.144 126.713 380.771Z" fill="#72A79B"/>
<path d="M110.659 378.415C110.97 378.241 111.666 379.015 111.873 379.236C113.42 380.93 112.213 387.432 111.407 391.04C111.14 387.227 110.874 383.414 110.607 379.608C110.548 379.334 110.4 378.567 110.659 378.423V378.415Z" fill="#72A79B"/>
<path d="M13.1962 378.254C13.0408 378.573 13.818 379.265 14.0401 379.462C15.7574 380.974 22.0345 379.477 25.5136 378.505C21.7902 378.384 18.0669 378.27 14.351 378.148C14.0845 378.095 13.3295 377.973 13.1962 378.254Z" fill="#72A79B"/>
<path d="M31.331 392.946C31.1756 393.265 31.9528 393.956 32.1749 394.153C33.8922 395.665 40.1693 394.169 43.6483 393.196C39.925 393.075 36.2017 392.961 32.4857 392.839C32.2193 392.786 31.4642 392.665 31.331 392.946Z" fill="#72A79B"/>
<path d="M37.6436 372.284C37.9767 371.98 39.0575 372.74 39.3684 372.952C41.7445 374.616 42.011 383.025 41.9962 387.734C40.6267 383.078 39.2647 378.421 37.8953 373.773C37.7473 373.454 37.3549 372.542 37.6436 372.284Z" fill="#72A79B"/>
<path d="M23.7115 385.127C23.556 385.446 24.3333 386.137 24.5553 386.334C26.2727 387.846 32.5498 386.35 36.0288 385.377C32.3055 385.256 28.5822 385.142 24.8662 385.02C24.5998 384.967 23.8447 384.846 23.7115 385.127Z" fill="#72A79B"/>
<path d="M6.98433 364.462C6.68824 364.66 7.01394 365.655 7.10277 365.944C7.81338 368.146 13.9498 370.167 17.4215 371.177C14.2904 369.111 11.1518 367.045 8.02065 364.987C7.82079 364.804 7.22861 364.303 6.97693 364.47L6.98433 364.462Z" fill="#72A79B"/>
<path d="M46.948 410.024C47.2811 409.72 48.3618 410.48 48.6727 410.692C51.0489 412.356 51.3153 420.765 51.3005 425.474C49.9311 420.818 48.5691 416.161 47.1997 411.513C47.0516 411.194 46.6593 410.282 46.948 410.024Z" fill="#72A79B"/>
<path d="M41.7883 406.951C42.0326 406.731 42.832 407.285 43.0615 407.445C44.8158 408.675 45.0157 414.874 45.0009 418.345C43.9942 414.912 42.9875 411.478 41.9808 408.045C41.8697 407.81 41.581 407.134 41.7957 406.944L41.7883 406.951Z" fill="#72A79B"/>
<path d="M34.8713 400.14C35.1156 399.92 35.915 400.474 36.1445 400.634C37.8988 401.864 38.0987 408.062 38.0839 411.534C37.0772 408.1 36.0705 404.667 35.0638 401.234C34.9527 400.998 34.6641 400.322 34.8787 400.132L34.8713 400.14Z" fill="#72A79B"/>
<path d="M23.1635 401.924C22.8674 402.122 23.1931 403.117 23.2819 403.406C23.9925 405.608 30.129 407.629 33.6006 408.639C30.4695 406.573 27.3309 404.507 24.1998 402.449C23.9999 402.266 23.4077 401.765 23.1561 401.932L23.1635 401.924Z" fill="#72A79B"/>
<path d="M27.0979 413.796C26.9425 414.115 27.7197 414.807 27.9418 415.004C29.6591 416.516 35.9362 415.019 39.4152 414.047C35.6919 413.925 31.9686 413.812 28.2527 413.69C27.9862 413.637 27.2311 413.515 27.0979 413.796Z" fill="#72A79B"/>
<path d="M34.7175 421.615C34.5621 421.934 35.3393 422.626 35.5614 422.823C37.2787 424.335 43.5558 422.838 47.0349 421.866C43.3115 421.745 39.5882 421.631 35.8723 421.509C35.6058 421.456 34.8508 421.334 34.7175 421.615Z" fill="#72A79B"/>
<path d="M38.9508 428.566C38.7954 428.885 39.5726 429.576 39.7947 429.773C41.512 431.285 47.7891 429.789 51.2682 428.816C47.5448 428.695 43.8215 428.581 40.1056 428.459C39.8391 428.406 39.0841 428.285 38.9508 428.566Z" fill="#72A79B"/>
<path d="M84.0333 404.849C84.0555 404.408 82.8489 404.028 82.501 403.922C79.851 403.094 73.5443 407.955 70.1097 410.811C74.3364 409.057 78.563 407.302 82.7897 405.547C83.108 405.471 84.0185 405.221 84.0333 404.849Z" fill="#72A79B"/>
<path d="M105.889 418.363C106.289 418.523 106.141 419.807 106.097 420.171C105.763 422.997 98.8719 426.947 94.9413 429.013C98.2131 425.754 101.492 422.503 104.764 419.244C104.964 418.979 105.549 418.227 105.897 418.363H105.889Z" fill="#72A79B"/>
<path d="M113.112 421.613C113.401 421.727 113.29 422.669 113.26 422.935C113.016 424.993 107.99 427.88 105.118 429.384C107.509 427.006 109.9 424.629 112.283 422.259C112.431 422.061 112.861 421.515 113.105 421.613H113.112Z" fill="#72A79B"/>
<path d="M121.977 422.134C122.265 422.248 122.154 423.19 122.125 423.456C121.88 425.515 116.854 428.401 113.982 429.905C116.373 427.528 118.764 425.15 121.148 422.78C121.296 422.583 121.725 422.036 121.969 422.134H121.977Z" fill="#72A79B"/>
<path d="M126.706 427.631C126.899 427.882 126.344 428.634 126.181 428.847C124.952 430.495 119.2 430.366 115.98 430.176C119.215 429.371 122.45 428.566 125.677 427.753C125.899 427.662 126.536 427.411 126.706 427.624V427.631Z" fill="#72A79B"/>
<path d="M109.53 437.708C109.826 437.556 109.619 436.599 109.567 436.325C109.123 434.214 103.646 431.699 100.529 430.416C103.224 432.649 105.925 434.89 108.62 437.123C108.79 437.313 109.286 437.837 109.53 437.715V437.708Z" fill="#72A79B"/>
<path d="M119.021 437.386C119.317 437.234 119.11 436.277 119.058 436.004C118.614 433.892 113.136 431.378 110.02 430.094C112.714 432.327 115.416 434.568 118.111 436.801C118.281 436.991 118.777 437.516 119.021 437.394V437.386Z" fill="#72A79B"/>
<path d="M273.288 416.68L205.047 416.861C204.262 416.863 203.46 417.284 203.26 417.799L181.664 473.516C181.14 474.869 181.764 475.979 183.058 475.976L295.39 475.677C296.684 475.674 297.303 474.548 296.778 473.21L275.081 417.608C274.878 417.094 274.073 416.678 273.288 416.68Z" fill="#FFF4F0"/>
<path d="M221.766 442.762L256.834 442.669C258.115 442.665 259.064 442.125 258.966 441.484L258.054 435.529C257.967 434.933 256.919 434.473 255.713 434.476L222.726 434.563C221.531 434.567 220.486 435.047 220.412 435.629L219.606 441.588C219.523 442.245 220.485 442.765 221.755 442.762L221.766 442.762Z" fill="#BAB186"/>
<path d="M234.541 441.295L245.066 441.267C245.803 441.265 246.389 440.95 246.367 440.576L245.809 431.486C245.787 431.158 245.22 430.906 244.537 430.907L234.812 430.933C234.129 430.935 233.564 431.205 233.554 431.519L233.226 440.611C233.216 440.985 233.804 441.296 234.541 441.295Z" fill="#BF9D8E"/>
<path d="M225.409 431.586C229.956 431.35 232.4 431.119 233.31 432.027C233.867 432.578 233.645 433.34 233.39 433.863C228.472 439.341 223.337 447.446 223.194 457.927C223.175 458.882 223.199 459.823 223.277 460.763C222.124 460.9 220.043 461.055 218.077 460.478C218.077 460.478 215.694 459.783 214.397 457.801C212.693 455.178 213.731 444.336 216.602 431.922C220.403 431.823 223.434 431.68 225.409 431.571L225.409 431.586Z" fill="#FAF0B3"/>
<path d="M257.357 450.356C257.198 442.996 249.586 438.732 240.019 437.966C239.848 437.966 239.688 437.967 239.517 437.967C229.837 438.829 221.884 442.956 221.819 450.51C221.734 458.78 227.517 465.558 240.423 465.538C251.28 465.509 257.551 459.043 257.357 450.356Z" fill="#EDBFA6"/>
<path d="M217.665 458.463C219.326 456.682 229.01 457.104 236.071 458.951C242.801 460.71 250.103 464.557 248.838 466.546C247.551 468.58 237.59 468.263 230.412 466.445C222.72 464.51 215.941 460.303 217.655 458.463L217.665 458.463Z" fill="#FAF0B3"/>
<path d="M259.055 454.561C257.27 454.058 252.612 456.474 249.885 458.81C247.19 461.116 244.787 464.75 246.465 465.537C248.133 466.324 253.433 464.16 256.426 461.674C259.792 458.873 260.913 455.078 259.044 454.561L259.055 454.561Z" fill="#FAF0B3"/>
<path d="M241.403 448.517C241.413 448.084 240.493 447.728 239.362 447.716C238.219 447.704 237.281 448.035 237.26 448.468" stroke="#42210B" stroke-width="0.25" stroke-miterlimit="10"/>
<path d="M245.161 444.849C245.094 443.536 242.058 442.23 239.592 442.237C237.126 442.243 233.49 443.582 233.44 444.881" fill="#FFFAFA"/>
<path d="M245.161 444.849C245.094 443.536 242.058 442.23 239.592 442.237C237.126 442.243 233.49 443.582 233.44 444.881" stroke="#E35D6A" stroke-width="0.5" stroke-miterlimit="10"/>
<path d="M228.843 418.111C224.05 418.138 219.267 418.166 214.473 418.194C213.841 421.181 213.177 424.318 212.481 427.649C211.891 430.487 211.496 434.594 215.126 434.584L227.168 434.552" fill="#EDBFA6"/>
<path d="M250.823 418.097C254.933 418.086 259.043 418.075 263.153 418.079C263.855 421.063 264.6 424.211 265.378 427.523C266.004 430.343 266.517 434.448 263.378 434.456L252.937 434.484" fill="#EDBFA6"/>
<path d="M224.755 434.558L252.041 434.486C254.912 434.478 257.066 433.353 256.87 431.995L255.098 420.012C254.935 418.922 252.776 418.062 250.278 418.069L226.451 418.132C223.942 418.139 221.788 419.01 221.642 420.101L219.933 432.093C219.745 433.452 221.904 434.566 224.776 434.558L224.755 434.558Z" fill="#7F4EC3"/>
<path d="M236.378 429.765C237.008 429.763 237.52 429.523 237.519 429.224C237.518 428.926 237.016 428.703 236.397 428.705C235.778 428.706 235.266 428.947 235.256 429.23C235.246 429.514 235.759 429.767 236.378 429.765Z" fill="#FF7442"/>
<path d="M238.277 429.222C238.907 429.221 239.408 428.981 239.407 428.697C239.406 428.413 238.893 428.176 238.274 428.177C237.655 428.179 237.143 428.419 237.144 428.703C237.144 428.987 237.647 429.224 238.277 429.222Z" fill="#FF7442"/>
<path d="M240.551 429.216C241.181 429.215 241.682 428.975 241.67 428.691C241.659 428.407 241.157 428.17 240.527 428.171C239.907 428.173 239.406 428.413 239.407 428.697C239.408 428.981 239.921 429.218 240.551 429.216Z" fill="#FF7442"/>
<path d="M242.825 429.479C243.455 429.477 243.956 429.237 243.934 428.954C243.912 428.67 243.41 428.432 242.78 428.434C242.161 428.436 241.659 428.676 241.671 428.96C241.682 429.243 242.195 429.481 242.825 429.479Z" fill="#FF7442"/>
<path d="M244.386 430.266C245.016 430.264 245.517 430.024 245.495 429.726C245.473 429.427 244.96 429.19 244.33 429.191C243.7 429.193 243.209 429.433 243.221 429.732C243.232 430.03 243.756 430.268 244.386 430.266Z" fill="#FF7442"/>
<path d="M235.025 430.664C235.655 430.663 236.177 430.422 236.176 430.124C236.176 429.825 235.673 429.588 235.043 429.589C234.413 429.591 233.901 429.831 233.892 430.13C233.882 430.428 234.384 430.666 235.025 430.664Z" fill="#FF7442"/>
<path d="M233.65 431.579C234.291 431.577 234.813 431.337 234.823 431.023C234.833 430.709 234.32 430.487 233.69 430.489C233.06 430.49 232.537 430.731 232.517 431.029C232.496 431.328 233.009 431.58 233.65 431.579Z" fill="#FF7442"/>
<path d="M232.841 432.491C233.482 432.49 234.015 432.234 234.025 431.936C234.035 431.637 233.522 431.385 232.892 431.386C232.251 431.388 231.729 431.628 231.708 431.942C231.688 432.255 232.201 432.493 232.841 432.491Z" fill="#FF7442"/>
<path d="M232.022 433.434C232.673 433.432 233.206 433.177 233.216 432.863C233.226 432.55 232.713 432.312 232.072 432.314C231.431 432.316 230.898 432.571 230.878 432.87C230.857 433.168 231.37 433.436 232.022 433.434Z" fill="#FF7442"/>
<path d="M231.181 434.481C231.832 434.479 232.376 434.224 232.386 433.911C232.396 433.597 231.883 433.345 231.242 433.346C230.602 433.348 230.058 433.603 230.037 433.917C230.017 434.23 230.53 434.483 231.181 434.481Z" fill="#FF7442"/>
<path d="M245.275 431.294C245.915 431.292 246.416 431.052 246.394 430.738C246.372 430.425 245.848 430.202 245.218 430.204C244.589 430.206 244.087 430.446 244.099 430.745C244.11 431.043 244.645 431.295 245.275 431.294Z" fill="#FF7442"/>
<path d="M246.43 432.276C247.071 432.274 247.572 432.019 247.55 431.721C247.528 431.422 246.993 431.17 246.353 431.172C245.712 431.173 245.211 431.413 245.233 431.727C245.255 432.04 245.79 432.278 246.43 432.276Z" fill="#FF7442"/>
<path d="M247.469 433.303C248.12 433.302 248.621 433.047 248.599 432.733C248.577 432.42 248.032 432.182 247.391 432.184C246.75 432.186 246.249 432.441 246.261 432.739C246.272 433.038 246.817 433.305 247.469 433.303Z" fill="#FF7442"/>
<path d="M231.059 452.993C232.234 452.99 233.214 452.226 233.244 451.286C233.273 450.345 232.364 449.631 231.221 449.634C230.079 449.637 229.099 450.386 229.037 451.297C228.975 452.208 229.885 452.997 231.059 452.993Z" fill="#006837"/>
<path d="M225.415 453.949C225.256 454.546 226.357 454.931 227.201 455.138C229.412 455.64 233.362 455.585 234.843 454.342C234.96 454.207 235.013 454.072 234.981 453.938C234.885 454.207 234.544 454.387 234.15 454.523C232.39 455.199 226.016 455.335 225.425 453.963L225.415 453.949Z" fill="#B38B67"/>
<path d="M233.269 452.674C232.395 453.034 231.242 453.276 230.206 453.055C229.234 452.789 228.314 452.329 227.108 452.421C226.329 452.453 225.582 452.605 224.942 452.83L224.952 452.83C226.361 452.603 227.845 452.494 229.116 452.909C229.726 453.116 230.495 453.323 231.263 453.247C232.032 453.185 232.715 452.959 233.291 452.704L233.269 452.704L233.269 452.689L233.269 452.674Z" fill="#B38B67"/>
<path d="M252.654 432.2C250.947 432.578 249.229 432.955 247.501 433.333C247.15 433.827 246.788 434.335 246.426 434.844C250.648 440.446 253.891 447.768 253.061 456.727C252.988 457.564 252.873 458.4 252.726 459.236C253.946 460.472 255.026 461.081 255.955 461.034C259.712 460.86 260.625 450.84 259.012 434.348C256.864 433.622 254.748 432.911 252.654 432.2Z" fill="#FAF0B3"/>
<path d="M247.873 452.949C249.048 452.946 249.932 452.182 249.865 451.241C249.799 450.301 248.804 449.587 247.651 449.59C246.509 449.593 245.614 450.342 245.659 451.253C245.704 452.163 246.699 452.952 247.873 452.949Z" fill="#006837"/>
<path d="M243.734 453.915C243.65 454.512 244.804 454.897 245.669 455.089C247.934 455.591 251.884 455.536 253.205 454.293C253.3 454.158 253.332 454.024 253.289 453.889C253.226 454.158 252.906 454.338 252.522 454.474C250.847 455.135 244.495 455.272 243.723 453.915L243.734 453.915Z" fill="#B38B67"/>
<path d="M245.279 452.851C246.551 453.46 248.099 453.59 249.465 453.034C250.734 452.612 252.218 452.713 253.628 452.948L253.639 452.948C252.987 452.711 252.239 452.564 251.46 452.536C250.253 452.464 249.336 452.915 248.365 453.186C247.341 453.413 246.177 453.192 245.3 452.821L245.279 452.821L245.279 452.836L245.279 452.851Z" fill="#B38B67"/>
<path d="M223.615 451.595C220.903 451.602 218.85 450.458 219.039 449.069C219.227 447.68 221.488 446.614 224.104 446.607" fill="#EDBFA6"/>
<path d="M220.702 448.004C221.428 448.002 222.046 447.687 222.088 447.299C222.129 446.911 221.584 446.614 220.869 446.615C220.154 446.617 219.535 446.933 219.483 447.306C219.43 447.679 219.976 448.006 220.702 448.004Z" fill="#FF7442"/>
<path d="M234.17 434.533C232.823 433.805 231.487 433.077 230.161 432.379C229.169 432.516 225.946 433.017 223.708 434.561C222.589 435.34 222.1 436.103 221.878 436.611C224.6 436.738 227.333 436.865 230.067 436.992C231.452 436.167 232.817 435.343 234.159 434.533L234.17 434.533Z" fill="#FAF0B3"/>
<path d="M313.49 483.682L279.834 414.761C279.639 414.36 278.875 414.041 278.13 414.043L199.764 414.251C199.026 414.253 198.263 414.576 198.07 414.979L165 484.077C164.359 485.422 164.956 486.523 166.333 486.519L312.176 486.132C313.553 486.128 314.145 485.013 313.49 483.682ZM294.699 474.695L183.636 474.991C182.36 474.994 181.731 473.928 182.241 472.652L203.282 419.512C203.481 419.018 204.275 418.614 205.057 418.612L272.835 418.431C273.617 418.429 274.413 418.829 274.615 419.322L296.076 472.349C296.592 473.622 295.976 474.692 294.699 474.695Z" fill="#301F40"/>
<path d="M144.322 468.001L200.986 446.269C200.22 444.271 199.449 442.269 198.683 440.271L142.019 462.003C140.7 462.511 140.036 464.004 140.54 465.327L141.003 466.525C141.51 467.844 143.003 468.509 144.327 468.004L144.322 468.001Z" fill="#FF7442" stroke="#301F40" stroke-width="2" stroke-miterlimit="10"/>
<path d="M206.916 440.445C204.916 442.393 202.916 444.341 200.917 446.289C200.142 444.292 199.36 442.298 198.586 440.301C201.36 440.35 204.142 440.396 206.916 440.445Z" fill="#FFF4F0" stroke="#301F40" stroke-width="2" stroke-miterlimit="10"/>
<path d="M205.918 440.837L207.115 440.366" stroke="#301F40" stroke-width="3" stroke-miterlimit="10"/>
<path d="M279.448 451.293C280.94 451.289 281.927 452.496 281.642 454.043L281.108 456.957L278.255 456.964C276.678 456.968 275.715 455.647 276.092 454.057C276.457 452.51 277.951 451.297 279.444 451.293L279.448 451.293Z" fill="#0ACF83"/>
<path d="M274.68 460.059C274.255 461.845 275.254 463.328 276.932 463.324L279.957 463.316L281.116 456.961L278.263 456.969C276.686 456.973 275.089 458.333 274.68 460.065L274.68 460.059Z" fill="#A259FF"/>
<path d="M273.081 466.804C272.605 468.823 273.644 470.497 275.422 470.492L278.64 470.483L279.95 463.309L276.924 463.318C275.251 463.322 273.537 464.851 273.077 466.799L273.081 466.804Z" fill="#F24E1E"/>
<path d="M278.644 470.483L281.862 470.475C283.644 470.47 285.297 468.784 285.556 466.771C285.808 464.823 284.652 463.302 282.979 463.307L279.953 463.315L278.644 470.489L278.644 470.483Z" fill="#FF7262"/>
<path d="M286.421 460.028C286.645 458.297 285.542 456.944 283.965 456.948C282.388 456.953 280.867 458.313 280.55 460.044C280.234 461.775 281.305 463.312 282.979 463.308C284.652 463.303 286.193 461.813 286.425 460.028L286.421 460.028Z" fill="#1ABCFE"/>
<path d="M529.72 170.687H389.179C383.568 170.687 379.019 175.354 379.019 181.112V229.764C379.019 235.522 383.568 240.189 389.179 240.189H529.72C535.331 240.189 539.879 235.522 539.879 229.764V181.112C539.879 175.354 535.331 170.687 529.72 170.687Z" fill="#BAB186"/>
<path d="M484.492 182.519H437.69C435.886 182.519 434.422 184.021 434.422 185.873V271.257C434.422 273.109 435.886 274.61 437.69 274.61H484.492C486.297 274.61 487.76 273.109 487.76 271.257V185.873C487.76 184.021 486.297 182.519 484.492 182.519Z" fill="#BF9D8E"/>
<path d="M398.974 268.164C418.862 270.319 429.605 272.378 433.762 263.803C436.26 258.642 435.413 251.605 434.397 246.705C414.849 198.74 397.078 134.476 400.49 61.3242C400.778 55.1645 401.201 49.1351 401.76 43.2448C397.704 42.376 390.33 41.4638 383.058 45.0953C383.058 45.0953 374.151 49.5522 368.411 62.3406C360.613 79.7163 357.422 158.515 360.52 265.097C377.097 265.966 390.322 267.226 398.974 268.164Z" fill="#FAF0B3"/>
<path d="M528.145 112.496C531.413 168.237 502.238 203.501 462.565 210.251C461.879 210.373 461.159 210.329 460.474 210.208C420.242 203.118 389.213 169.227 392.303 112.113C395.351 55.8943 417.854 14.0624 462.565 13.9755C500.147 13.906 524.691 53.5573 528.145 112.496Z" fill="#EDBFA6"/>
<path d="M380.602 57.9794C385.835 69.569 421.418 66.6759 447.342 54.5564C471.48 43.2709 496.489 19.6487 491.621 7.94619C486.77 -3.72156 452.939 -1.7668 428.192 8.78023C401.057 20.3437 375.319 46.303 380.594 57.9794H380.602Z" fill="#FAF0B3"/>
<path d="M532.361 83.122C525.978 86.571 507.75 70.403 497.099 55.1993C486.88 40.6124 477.796 18.554 483.485 13.8278C489.064 9.18854 508.071 21.8988 519.535 37.033C532.869 54.6433 539.007 79.5339 532.361 83.122Z" fill="#FAF0B3"/>
<path d="M467.484 126.17C467.56 129.376 464.03 132.069 459.585 132.182C455.14 132.295 451.482 129.793 451.398 126.587" stroke="#42210B" stroke-miterlimit="10"/>
<path d="M482.732 153.85C482.732 164.093 470.701 174.7 460.719 174.7C450.737 174.7 436.167 164.093 436.167 153.85" fill="#FFFAFA"/>
<path d="M482.732 153.85C482.732 164.093 470.701 174.7 460.719 174.7C450.737 174.7 436.167 164.093 436.167 153.85" stroke="#E35D6A" stroke-width="2" stroke-miterlimit="10"/>
<path d="M409.244 416.222C385.724 416.014 362.213 415.814 338.694 415.605C338.643 380.124 338.592 344.643 338.55 309.153C338.55 280.379 340.539 240.719 356.092 240.719H408.109" fill="#EDBFA6"/>
<path d="M517.198 405.797C537.373 405.727 557.557 405.649 577.732 405.58C577.935 371.906 578.138 338.24 578.342 304.566C578.342 277.356 576.623 239.859 563.17 239.859H518.18" fill="#EDBFA6"/>
<path d="M520.305 240.293H392.565C383.185 240.293 375.582 248.096 375.582 257.721V436.586C375.582 446.211 383.185 454.014 392.565 454.014H520.305C529.685 454.014 537.288 446.211 537.288 436.586V257.721C537.288 248.096 529.685 240.293 520.305 240.293Z" fill="#7F4EC3"/>
<path d="M447.02 295.826C449.826 295.826 452.1 293.492 452.1 290.614C452.1 287.735 449.826 285.401 447.02 285.401C444.215 285.401 441.941 287.735 441.941 290.614C441.941 293.492 444.215 295.826 447.02 295.826Z" fill="#FF7442"/>
<path d="M455.487 301.039C458.292 301.039 460.567 298.705 460.567 295.826C460.567 292.947 458.292 290.613 455.487 290.613C452.681 290.613 450.407 292.947 450.407 295.826C450.407 298.705 452.681 301.039 455.487 301.039Z" fill="#FF7442"/>
<path d="M465.646 301.039C468.452 301.039 470.726 298.705 470.726 295.826C470.726 292.947 468.452 290.613 465.646 290.613C462.841 290.613 460.567 292.947 460.567 295.826C460.567 298.705 462.841 301.039 465.646 301.039Z" fill="#FF7442"/>
<path d="M475.806 298.432C478.612 298.432 480.886 296.099 480.886 293.22C480.886 290.341 478.612 288.007 475.806 288.007C473.001 288.007 470.726 290.341 470.726 293.22C470.726 296.099 473.001 298.432 475.806 298.432Z" fill="#FF7442"/>
<path d="M482.579 290.614C485.385 290.614 487.659 288.28 487.659 285.401C487.659 282.522 485.385 280.188 482.579 280.188C479.774 280.188 477.499 282.522 477.499 285.401C477.499 288.28 479.774 290.614 482.579 290.614Z" fill="#FF7442"/>
<path d="M441.094 287.138C443.9 287.138 446.174 284.804 446.174 281.926C446.174 279.047 443.9 276.713 441.094 276.713C438.289 276.713 436.014 279.047 436.014 281.926C436.014 284.804 438.289 287.138 441.094 287.138Z" fill="#FF7442"/>
<path d="M435.168 278.451C437.973 278.451 440.248 276.117 440.248 273.238C440.248 270.359 437.973 268.025 435.168 268.025C432.362 268.025 430.088 270.359 430.088 273.238C430.088 276.117 432.362 278.451 435.168 278.451Z" fill="#FF7442"/>
<path d="M431.781 269.763C434.587 269.763 436.861 267.429 436.861 264.55C436.861 261.671 434.587 259.337 431.781 259.337C428.976 259.337 426.701 261.671 426.701 264.55C426.701 267.429 428.976 269.763 431.781 269.763Z" fill="#FF7442"/>
<path d="M428.395 261.075C431.2 261.075 433.474 258.741 433.474 255.862C433.474 252.983 431.2 250.649 428.395 250.649C425.589 250.649 423.315 252.983 423.315 255.862C423.315 258.741 425.589 261.075 428.395 261.075Z" fill="#FF7442"/>
<path d="M425.008 251.518C427.814 251.518 430.088 249.184 430.088 246.305C430.088 243.427 427.814 241.093 425.008 241.093C422.203 241.093 419.928 243.427 419.928 246.305C419.928 249.184 422.203 251.518 425.008 251.518Z" fill="#FF7442"/>
<path d="M486.245 280.77C489.051 280.77 491.325 278.436 491.325 275.557C491.325 272.678 489.051 270.345 486.245 270.345C483.44 270.345 481.165 272.678 481.165 275.557C481.165 278.436 483.44 280.77 486.245 280.77Z" fill="#FF7442"/>
<path d="M491.045 271.5C493.851 271.5 496.125 269.166 496.125 266.288C496.125 263.409 493.851 261.075 491.045 261.075C488.24 261.075 485.966 263.409 485.966 266.288C485.966 269.166 488.24 271.5 491.045 271.5Z" fill="#FF7442"/>
<path d="M495.279 261.944C498.084 261.944 500.358 259.61 500.358 256.731C500.358 253.852 498.084 251.518 495.279 251.518C492.473 251.518 490.199 253.852 490.199 256.731C490.199 259.61 492.473 261.944 495.279 261.944Z" fill="#FF7442"/>
<path d="M428.208 118.238C432.618 118.238 436.192 112.89 436.192 106.292C436.192 99.6949 432.618 94.3466 428.208 94.3466C423.799 94.3466 420.224 99.6949 420.224 106.292C420.224 112.89 423.799 118.238 428.208 118.238Z" fill="#006837"/>
<path d="M407.331 87.8134C407.204 83.817 411.31 81.4452 414.476 80.1594C421.292 77.6139 429.064 77.6139 435.888 80.1594C439.054 81.4452 443.16 83.8257 443.033 87.8221C442.441 84.1037 438.563 82.4964 435.456 81.4452C428.835 79.4991 421.537 79.4991 414.908 81.4452C411.801 82.4964 407.923 84.1037 407.331 87.8221V87.8134Z" fill="#B38B67"/>
<path d="M436.514 96.1189C433.288 93.556 428.954 91.8445 424.991 93.3996C423.721 93.8775 422.578 94.6854 421.376 95.4326C419.014 96.9964 416.119 97.9781 413.24 97.7957C410.463 97.5785 407.348 96.7358 405.231 95.1807C410.353 97.2049 416.178 97.8913 421.029 94.8331C423.374 93.3215 426.16 91.9575 429.03 92.4092C431.747 92.7654 434.736 94.2511 436.514 96.1189Z" fill="#B38B67"/>
<path d="M518.239 261.579L495.38 251.153C493.687 246.575 491.994 241.996 490.3 237.418C506.124 188.905 516.123 131.478 509.434 68.5959C508.85 63.0791 508.147 57.6492 507.343 52.3236C511.263 44.4611 514.895 40.6472 518.239 40.8991C531.701 41.9156 540.455 108.812 544.485 241.588C535.739 248.252 526.985 254.906 518.239 261.57V261.579Z" fill="#FAF0B3"/>
<path d="M491.384 118.221C495.794 118.221 499.368 112.873 499.368 106.275C499.368 99.6776 495.794 94.3293 491.384 94.3293C486.975 94.3293 483.401 99.6776 483.401 106.275C483.401 112.873 486.975 118.221 491.384 118.221Z" fill="#006837"/>
<path d="M475.721 87.7787C475.594 83.7823 479.717 81.4366 482.875 80.1594C490.859 77.1969 502.111 77.4054 509.019 82.9309C510.399 84.1037 511.568 85.8847 511.415 87.7874C510.814 84.069 506.928 82.4878 503.83 81.4453C497.209 79.5166 489.928 79.5166 483.307 81.4453C480.2 82.4878 476.322 84.0777 475.721 87.7874V87.7787Z" fill="#B38B67"/>
<path d="M481.665 95.5456C486.541 91.3494 491.824 90.498 497.201 94.3293C502.06 97.3874 507.877 96.6924 512.999 94.6768C510.882 96.2406 507.766 97.0747 504.989 97.2919C502.111 97.483 499.215 96.5013 496.853 94.9288C495.651 94.1816 494.517 93.3737 493.238 92.8958C489.268 91.332 484.941 93.0522 481.716 95.6151L481.665 95.5456Z" fill="#B38B67"/>
<path d="M399.711 104.329C389.424 104.329 381.085 112.495 381.085 122.573C381.085 132.651 389.424 140.818 399.711 140.818" fill="#EDBFA6"/>
<path d="M387.011 140.818C389.817 140.818 392.091 138.484 392.091 135.605C392.091 132.726 389.817 130.392 387.011 130.392C384.206 130.392 381.932 132.726 381.932 135.605C381.932 138.484 384.206 140.818 387.011 140.818Z" fill="#FF7442"/>
<path d="M437.809 240.728C431.883 247.392 425.956 254.046 420.03 260.71C415.737 259.468 401.895 254.846 392.938 240.728C388.518 233.769 386.85 226.958 386.165 222.483C397.738 221.328 409.303 220.164 420.876 219.008C426.524 226.245 432.162 233.491 437.809 240.728Z" fill="#FAF0B3"/>
<path d="M576.195 462.638H339.926C338.757 462.638 337.809 463.61 337.809 464.81V466.235C337.809 467.434 338.757 468.407 339.926 468.407H576.195C577.364 468.407 578.312 467.434 578.312 466.235V464.81C578.312 463.61 577.364 462.638 576.195 462.638Z" fill="#301F40"/>
<path d="M572.335 454.975L341.949 453.82C334.533 453.82 328.623 438.364 327.336 439.98L305.824 306.205C302.615 290.063 317.668 279.681 325.093 279.681L567.839 278.525C616.165 273.912 610.543 297.439 610.543 305.049L588.065 431.909C588.065 439.52 579.751 454.975 572.335 454.975Z" fill="#301F40"/>
<path d="M456.837 349.21C457.388 347.967 459.572 343.424 464.702 341.139C468.14 339.61 471.221 339.835 472.432 339.983C473.575 340.122 478.164 340.835 481.423 344.596C484.835 348.532 484.81 353.545 484.793 356.125C484.7 372.424 458.099 392.101 456.829 393.031C453.112 390.616 431.65 376.298 429.72 358.436C429.406 355.526 428.831 350.235 432.107 345.752C434.816 342.042 439.566 339.688 444.332 339.983C444.976 340.027 447.939 340.252 451.072 342.285C454.661 344.614 456.261 347.872 456.829 349.201L456.837 349.21Z" fill="#ECE4F8"/>
<g clip-path="url(#clip0_177_1650)">
<path d="M466.549 355.44H461.396L457.643 361.378L454.426 355.44H442.631L457.643 381.155L472.655 355.44H466.549ZM446.364 357.585H449.97L457.643 370.868L465.31 357.585H468.915L457.643 376.899L446.364 357.585Z" fill="#7F4EC3"/>
</g>
<path opacity="0.5" d="M770.418 274.776C767.383 278.502 749.23 269.709 736.213 258.245C720.933 244.784 709.689 224.952 713.203 221.366C716.717 217.78 735.044 230.414 746.369 240.702C759.367 252.503 773.677 270.777 770.418 274.776Z" fill="#FF7442" stroke="#301F40" stroke-miterlimit="10"/>
<path d="M775.463 212.291C777.637 209.443 785.168 200.303 798.311 197.63C801.41 196.999 809.575 195.337 817.778 199.166C828.074 203.97 834.479 215.571 834.938 228.783C834.824 302.353 834.711 375.924 834.592 449.494" stroke="#301F40" stroke-width="8" stroke-miterlimit="10"/>
<path d="M872.83 483.806H797.05C795.733 483.806 794.73 482.888 794.932 481.88C795.701 478.04 796.47 474.206 797.24 470.366C797.403 469.552 798.299 468.95 799.358 468.95L869.766 468.938C870.781 468.938 871.657 469.493 871.865 470.269C872.887 474.109 873.908 477.956 874.923 481.796C875.2 482.83 874.179 483.806 872.824 483.806H872.83Z" fill="#7F4EC3"/>
<path d="M750.601 240.352C750.081 239.945 749.561 239.533 749.053 239.126C743.75 233.637 738.447 228.142 733.144 222.652C734.36 221.177 745.217 208.26 753.203 210.773C755.008 211.342 757.803 213.055 758.894 213.724C762.762 216.1 765.332 218.445 766.767 219.77C775.8 228.11 780.319 232.28 780.79 233.906C783.222 242.327 773.625 251.793 771.387 253.912C764.417 250.155 757.434 245.685 750.607 240.352H750.601Z" fill="#7F4EC3"/>
<path d="M780.178 239.044C769.073 229.824 757.968 220.611 746.869 211.391C747.594 210.553 754.624 202.692 765.244 203.672C774.936 204.566 782.268 212.438 784.136 221.009C786.164 230.332 781.119 237.715 780.184 239.044H780.178Z" fill="#301F40"/>
<path d="M770.943 274.5C751.483 257.002 732.016 239.505 712.556 222.007C715.084 219.382 719.302 215.87 724.979 215.133C729.451 214.552 734.687 215.72 755.414 233.88C772.657 248.985 774.707 253.153 775.291 257.627C776.216 264.726 773.21 270.875 770.943 274.5Z" fill="#301F40"/>
<path d="M871.537 473.512C846.756 473.305 821.975 473.09 797.194 472.882C801.14 455.312 816.517 442.745 834.056 442.632C851.997 442.519 867.789 455.463 871.537 473.512Z" fill="#301F40"/>
<defs>
<clipPath id="clip0_177_1650">
<rect width="30.0234" height="34.3125" fill="white" transform="translate(442.631 351.131)"/>
</clipPath>
</defs>
</svg>
