<svg width="70" height="83" viewBox="0 0 70 83" fill="none" xmlns="http://www.w3.org/2000/svg">
<path d="M41.5347 68.8377L28.5028 68.8381C28.0893 68.8381 27.7541 69.1823 27.7541 69.6068L27.7541 69.9004C27.7541 70.3249 28.0893 70.669 28.5029 70.669L41.5347 70.6685C41.9483 70.6685 42.2835 70.3244 42.2835 69.8999L42.2835 69.6063C42.2835 69.1818 41.9482 68.8377 41.5347 68.8377Z" fill="#301F40"/>
<path d="M41.5347 71.7213L28.5028 71.7217C28.0893 71.7218 27.7541 72.0659 27.7541 72.4904L27.7541 72.784C27.7541 73.2085 28.0894 73.5526 28.5029 73.5526L41.5348 73.5522C41.9483 73.5521 42.2835 73.208 42.2835 72.7835L42.2835 72.4899C42.2835 72.0654 41.9482 71.7213 41.5347 71.7213Z" fill="#301F40"/>
<path d="M41.5351 74.6053L28.5032 74.6058C28.0897 74.6058 27.7544 74.9499 27.7544 75.3744L27.7545 75.668C27.7545 76.0925 28.0897 76.4366 28.5032 76.4366L41.5351 76.4362C41.9486 76.4362 42.2839 76.092 42.2839 75.6675L42.2838 75.3739C42.2838 74.9494 41.9486 74.6053 41.5351 74.6053Z" fill="#301F40"/>
<path d="M39.9543 77.8432C39.5169 80.2779 37.4304 82.0652 35.0156 82.0652C32.6009 82.0653 30.5143 80.2782 30.0767 77.8435L39.9459 77.8432L39.9543 77.8432Z" fill="#301F40"/>
<path d="M33.9484 0.041693L33.7381 0.0416995C33.4174 0.0417095 33.1575 0.308428 33.1575 0.637433L33.1579 11.4035C33.1579 11.7325 33.4178 11.9992 33.7384 11.9992L33.9487 11.9992C34.2694 11.9992 34.5293 11.7325 34.5293 11.4035L34.5289 0.63739C34.5289 0.308385 34.269 0.0416831 33.9484 0.041693Z" fill="#301F40"/>
<path d="M56.1803 5.39257L55.9982 5.28466C55.7205 5.12017 55.3655 5.2178 55.2052 5.50273L49.9596 14.8266C49.7993 15.1115 49.8945 15.4758 50.1722 15.6403L50.3543 15.7483C50.632 15.9127 50.987 15.8151 51.1473 15.5302L56.3928 6.20633C56.5531 5.9214 56.458 5.55707 56.1803 5.39257Z" fill="#301F40"/>
<path d="M68.7383 21.3677L68.6558 21.1691C68.53 20.8664 68.1889 20.7256 67.894 20.8547L58.2425 25.0774C57.9475 25.2064 57.8104 25.5565 57.9362 25.8592L58.0187 26.0578C58.1445 26.3605 58.4856 26.5013 58.7805 26.3723L68.432 22.1495C68.7269 22.0205 68.8641 21.6705 68.7383 21.3677Z" fill="#301F40"/>
<path d="M19.8344 15.4007L20.0034 15.2721C20.2609 15.076 20.3147 14.7029 20.1237 14.4387L13.8725 5.79233C13.6815 5.52811 13.3179 5.47282 13.0604 5.66885L12.8915 5.79746C12.634 5.99349 12.5801 6.3666 12.7711 6.63083L19.0223 15.2772C19.2134 15.5414 19.577 15.5967 19.8344 15.4007Z" fill="#301F40"/>
<path d="M11.5136 26.4532L11.6047 26.2586C11.7436 25.9619 11.6219 25.606 11.3329 25.4635L1.87522 20.8015C1.5862 20.659 1.23933 20.784 1.10047 21.0806L1.00936 21.2752C0.870499 21.5719 0.992223 21.9278 1.28124 22.0703L10.7389 26.7324C11.0279 26.8748 11.3748 26.7498 11.5136 26.4532Z" fill="#301F40"/>
<path d="M11.6855 38.5833L11.6588 38.3692C11.6181 38.0427 11.3274 37.8119 11.0093 37.8536L0.602321 39.2182C0.284288 39.2599 0.0594244 39.5583 0.100075 39.8848L0.126743 40.099C0.167394 40.4254 0.458166 40.6563 0.776199 40.6146L11.1832 39.25C11.5012 39.2083 11.7261 38.9098 11.6855 38.5833Z" fill="#301F40"/>
<path d="M68.8186 42.2696L68.8723 42.0608C68.9542 41.7426 68.7692 41.4166 68.4592 41.3326L58.3149 38.5845C58.0049 38.5006 57.6873 38.6904 57.6054 39.0087L57.5517 39.2174C57.4698 39.5356 57.6548 39.8617 57.9648 39.9456L68.1091 42.6937C68.4191 42.7777 68.7367 42.5878 68.8186 42.2696Z" fill="#301F40"/>
<path d="M55.4995 35.2857C55.4992 23.9835 46.5715 14.8141 35.549 14.8145C24.5265 14.8148 15.5993 23.9761 15.5997 35.287C15.5998 40.7439 17.6783 45.6999 21.0693 49.3693C22.2473 51.8128 23.4001 54.7484 24.2417 58.1503C24.6035 59.6181 24.8728 61.0255 25.0664 62.3552C25.0665 65.3858 27.4814 67.8638 30.4347 67.8637L40.8178 67.8634C43.7712 67.8633 46.1859 65.3852 46.1859 62.3545C46.4635 60.8176 46.7327 59.2721 47.0103 57.7352C48.1209 54.834 49.2399 51.9328 50.3505 49.0317C53.5561 45.3966 55.5081 40.5786 55.5079 35.2944L55.4995 35.2857Z" fill="#FBE7E1" stroke="#301F40" stroke-width="2" stroke-miterlimit="10"/>
<path d="M28.7546 49.9712C27.8459 52.7946 30.0337 56.6454 34.1736 59.7105L34.1738 68.0598L36.8832 68.0597L36.8829 59.7104C41.0226 56.6537 43.2186 52.7941 42.3013 49.9707C42.2593 49.8326 41.4683 47.4927 39.5919 47.1906C38.1194 46.9489 36.445 48.0455 35.528 49.9709C34.6108 48.0455 32.9363 46.949 31.4638 47.1908C29.5875 47.4931 28.7966 49.833 28.7546 49.9712Z" fill="#FF7442" stroke="#301F40" stroke-miterlimit="10"/>
</svg>
