<svg width="400" height="400" viewBox="0 0 400 400" fill="none" xmlns="http://www.w3.org/2000/svg">
<circle cx="200" cy="200" r="200" fill="url(#paint0_linear_220_125)"/>
<mask id="mask0_220_125" style="mask-type:alpha" maskUnits="userSpaceOnUse" x="0" y="0" width="400" height="400">
<path d="M400 200C400 310.457 310.457 400 200 400C89.543 400 0 310.457 0 200C0 89.543 89.543 0 200 0C310.457 0 400 89.543 400 200Z" fill="#FFF4F0"/>
</mask>
<g mask="url(#mask0_220_125)">
<path d="M271.849 223.245H130.956C125.331 223.245 120.771 227.924 120.771 233.696V282.47C120.771 288.242 125.331 292.922 130.956 292.922H271.849C277.474 292.922 282.034 288.242 282.034 282.47V233.696C282.034 227.924 277.474 223.245 271.849 223.245Z" fill="#BAB186"/>
<path d="M151.071 469.396C127.493 469.187 103.923 468.986 80.3447 468.777C80.2938 433.207 80.2429 397.637 80.2004 362.058C80.2004 333.212 82.195 293.453 97.7866 293.453H149.934" fill="#EDBFA6"/>
<path d="M259.296 458.944C279.522 458.874 299.756 458.796 319.982 458.726C320.186 424.968 320.389 391.218 320.593 357.46C320.593 330.181 318.87 292.591 305.383 292.591H260.281" fill="#EDBFA6"/>
<path d="M262.411 293.026H134.351C124.948 293.026 117.325 300.848 117.325 310.497V489.811C117.325 499.46 124.948 507.282 134.351 507.282H262.411C271.814 507.282 279.437 499.46 279.437 489.811V310.497C279.437 300.848 271.814 293.026 262.411 293.026Z" fill="#7F4EC3"/>
<path d="M188.943 348.698C191.755 348.698 194.035 346.358 194.035 343.472C194.035 340.586 191.755 338.247 188.943 338.247C186.13 338.247 183.85 340.586 183.85 343.472C183.85 346.358 186.13 348.698 188.943 348.698Z" fill="#FF7442"/>
<path d="M197.431 353.924C200.243 353.924 202.523 351.584 202.523 348.698C202.523 345.812 200.243 343.472 197.431 343.472C194.618 343.472 192.338 345.812 192.338 348.698C192.338 351.584 194.618 353.924 197.431 353.924Z" fill="#FF7442"/>
<path d="M207.616 353.924C210.428 353.924 212.708 351.584 212.708 348.698C212.708 345.812 210.428 343.472 207.616 343.472C204.803 343.472 202.523 345.812 202.523 348.698C202.523 351.584 204.803 353.924 207.616 353.924Z" fill="#FF7442"/>
<path d="M217.801 351.311C220.613 351.311 222.893 348.971 222.893 346.085C222.893 343.199 220.613 340.859 217.801 340.859C214.988 340.859 212.708 343.199 212.708 346.085C212.708 348.971 214.988 351.311 217.801 351.311Z" fill="#FF7442"/>
<path d="M224.591 343.472C227.403 343.472 229.683 341.133 229.683 338.246C229.683 335.36 227.403 333.021 224.591 333.021C221.778 333.021 219.498 335.36 219.498 338.246C219.498 341.133 221.778 343.472 224.591 343.472Z" fill="#FF7442"/>
<path d="M183.002 339.988C185.814 339.988 188.094 337.649 188.094 334.762C188.094 331.876 185.814 329.537 183.002 329.537C180.189 329.537 177.909 331.876 177.909 334.762C177.909 337.649 180.189 339.988 183.002 339.988Z" fill="#FF7442"/>
<path d="M177.061 331.279C179.873 331.279 182.153 328.939 182.153 326.053C182.153 323.167 179.873 320.827 177.061 320.827C174.248 320.827 171.968 323.167 171.968 326.053C171.968 328.939 174.248 331.279 177.061 331.279Z" fill="#FF7442"/>
<path d="M173.665 322.569C176.478 322.569 178.758 320.229 178.758 317.343C178.758 314.457 176.478 312.118 173.665 312.118C170.853 312.118 168.573 314.457 168.573 317.343C168.573 320.229 170.853 322.569 173.665 322.569Z" fill="#FF7442"/>
<path d="M170.27 313.859C173.083 313.859 175.363 311.52 175.363 308.634C175.363 305.748 173.083 303.408 170.27 303.408C167.458 303.408 165.178 305.748 165.178 308.634C165.178 311.52 167.458 313.859 170.27 313.859Z" fill="#FF7442"/>
<path d="M166.875 304.279C169.688 304.279 171.968 301.939 171.968 299.053C171.968 296.167 169.688 293.827 166.875 293.827C164.063 293.827 161.783 296.167 161.783 299.053C161.783 301.939 164.063 304.279 166.875 304.279Z" fill="#FF7442"/>
<path d="M228.266 333.604C231.078 333.604 233.358 331.264 233.358 328.378C233.358 325.492 231.078 323.153 228.266 323.153C225.453 323.153 223.173 325.492 223.173 328.378C223.173 331.264 225.453 333.604 228.266 333.604Z" fill="#FF7442"/>
<path d="M233.078 324.311C235.891 324.311 238.171 321.971 238.171 319.085C238.171 316.199 235.891 313.859 233.078 313.859C230.266 313.859 227.986 316.199 227.986 319.085C227.986 321.971 230.266 324.311 233.078 324.311Z" fill="#FF7442"/>
<path d="M237.322 314.73C240.134 314.73 242.414 312.391 242.414 309.505C242.414 306.619 240.134 304.279 237.322 304.279C234.509 304.279 232.229 306.619 232.229 309.505C232.229 312.391 234.509 314.73 237.322 314.73Z" fill="#FF7442"/>
<path d="M140.776 320.966C160.713 323.126 171.484 325.191 175.651 316.594C178.155 311.421 177.307 304.366 176.288 299.454C156.69 251.368 138.875 186.943 142.295 113.608C142.584 107.433 143.008 101.389 143.569 95.4835C139.503 94.6125 132.11 93.698 124.82 97.3387C124.82 97.3387 115.891 101.807 110.136 114.627C102.319 132.046 99.1193 211.043 102.226 317.892C118.844 318.763 132.102 320.026 140.776 320.966Z" fill="#FAF0B3"/>
<path d="M270.271 164.908C273.547 220.789 244.299 256.141 204.526 262.908C203.839 263.03 203.117 262.987 202.43 262.865C162.097 255.758 130.99 221.782 134.088 164.525C137.144 108.165 159.703 66.2279 204.526 66.1408C242.202 66.0712 266.808 105.822 270.271 164.908Z" fill="#EDBFA6"/>
<path d="M122.358 110.255C127.604 121.874 163.277 118.973 189.266 106.823C213.463 95.5097 238.536 71.8283 233.655 60.0964C228.792 48.3994 194.876 50.3591 170.067 60.9326C142.864 72.525 117.062 98.5493 122.35 110.255H122.358Z" fill="#FAF0B3"/>
<path d="M274.498 135.461C268.098 138.918 249.824 122.71 239.147 107.468C228.902 92.8445 219.795 70.7308 225.499 65.9928C231.092 61.3419 250.147 74.084 261.639 89.2562C275.007 106.911 281.16 131.864 274.498 135.461Z" fill="#FAF0B3"/>
<path d="M209.457 178.617C209.534 181.831 205.994 184.531 201.539 184.644C197.083 184.757 193.416 182.249 193.331 179.035" stroke="#42210B" stroke-miterlimit="10"/>
<path d="M224.743 206.366C224.743 216.634 212.683 227.269 202.676 227.269C192.669 227.269 178.062 216.634 178.062 206.366" fill="#FFFAFA"/>
<path d="M224.743 206.366C224.743 216.634 212.683 227.269 202.676 227.269C192.669 227.269 178.062 216.634 178.062 206.366" stroke="#E35D6A" stroke-width="2" stroke-miterlimit="10"/>
<path d="M260.34 314.365L237.424 303.913C235.726 299.323 234.029 294.733 232.331 290.143C248.195 241.509 258.218 183.938 251.513 120.898C250.927 115.368 250.223 109.924 249.417 104.585C253.346 96.7029 256.988 92.8794 260.34 93.1319C273.835 94.151 282.611 161.215 286.652 294.324C277.884 301.004 269.108 307.676 260.34 314.356V314.365Z" fill="#FAF0B3"/>
<path d="M233.418 170.317C237.838 170.317 241.422 164.956 241.422 158.342C241.422 151.728 237.838 146.366 233.418 146.366C228.998 146.366 225.414 151.728 225.414 158.342C225.414 164.956 228.998 170.317 233.418 170.317Z" fill="#006837"/>
<path d="M217.716 140.129C217.588 136.123 221.722 133.771 224.888 132.491C232.891 129.521 244.171 129.73 251.097 135.269C252.481 136.445 253.652 138.23 253.499 140.138C252.897 136.41 249.001 134.825 245.894 133.78C239.257 131.846 231.958 131.846 225.321 133.78C222.206 134.825 218.318 136.419 217.716 140.138V140.129Z" fill="#B38B67"/>
<path d="M178.23 148.038C173.341 143.831 168.045 142.978 162.655 146.819C157.783 149.885 151.952 149.188 146.817 147.167C148.939 148.735 152.063 149.571 154.847 149.789C157.732 149.98 160.635 148.996 163.003 147.42C164.208 146.671 165.346 145.861 166.627 145.382C170.608 143.814 174.945 145.538 178.179 148.108L178.23 148.038Z" fill="#B38B67"/>
<path d="M223.674 147.915C228.563 143.709 233.859 142.855 239.249 146.696C244.121 149.762 249.952 149.065 255.086 147.044C252.965 148.612 249.841 149.448 247.057 149.666C244.171 149.858 241.269 148.873 238.901 147.297C237.695 146.548 236.558 145.738 235.277 145.259C231.296 143.691 226.959 145.416 223.725 147.985L223.674 147.915Z" fill="#B38B67"/>
<path d="M141.515 156.721C131.202 156.721 122.842 164.908 122.842 175.011C122.842 185.114 131.202 193.301 141.515 193.301" fill="#EDBFA6"/>
<path d="M128.783 193.301C131.596 193.301 133.876 190.961 133.876 188.075C133.876 185.189 131.596 182.85 128.783 182.85C125.971 182.85 123.691 185.189 123.691 188.075C123.691 190.961 125.971 193.301 128.783 193.301Z" fill="#FF7442"/>
<path d="M179.709 293.462C173.767 300.142 167.826 306.813 161.885 313.494C157.582 312.248 143.704 307.615 134.725 293.462C130.294 286.485 128.622 279.657 127.935 275.171C139.537 274.013 151.131 272.846 162.733 271.688C168.395 278.943 174.047 286.206 179.709 293.462Z" fill="#FAF0B3"/>
<path d="M170.084 170.665C174.504 170.665 178.087 165.303 178.087 158.689C178.087 152.075 174.504 146.713 170.084 146.713C165.663 146.713 162.08 152.075 162.08 158.689C162.08 165.303 165.663 170.665 170.084 170.665Z" fill="#006837"/>
<path d="M149.154 140.164C149.026 136.157 153.143 133.78 156.317 132.491C163.149 129.939 170.941 129.939 177.782 132.491C180.956 133.78 185.073 136.166 184.945 140.172C184.351 136.445 180.464 134.834 177.349 133.78C170.712 131.829 163.396 131.829 156.75 133.78C153.635 134.834 149.748 136.445 149.154 140.172V140.164Z" fill="#B38B67"/>
</g>
<defs>
<linearGradient id="paint0_linear_220_125" x1="200" y1="0" x2="200" y2="400" gradientUnits="userSpaceOnUse">
<stop stop-color="#FBE7E1"/>
<stop offset="1" stop-color="#ECE4FB"/>
</linearGradient>
</defs>
</svg>
