<svg width="90" height="82" viewBox="0 0 90 82" fill="none" xmlns="http://www.w3.org/2000/svg">
<g clip-path="url(#clip0_213_231)">
<path d="M87.6486 43.5722L51.5795 3.76559L11.7729 39.8347L47.842 79.6413L87.6486 43.5722Z" stroke="url(#paint0_linear_213_231)" stroke-width="3" stroke-miterlimit="10"/>
<path opacity="0.7" d="M79.1324 43.6796L43.679 3.3237L3.32309 38.7772L38.7766 79.1331L79.1324 43.6796Z" fill="#FFF4F0" stroke="#7F4EC3" stroke-width="3" stroke-miterlimit="10"/>
<path d="M78.4535 43.6491L43 3.29327L2.64414 38.7468L38.0976 79.1026L78.4535 43.6491Z" stroke="url(#paint1_linear_213_231)" stroke-width="3" stroke-miterlimit="10"/>
</g>
<path d="M38.1707 55.178C38.0152 55.5832 37.7796 56.0215 37.4215 56.4408C36.267 57.8073 34.6838 57.9864 34.2408 58.0288C31.8754 58.2597 30.2403 56.6764 30 56.4408" stroke="#7F4EC3" stroke-width="2" stroke-miterlimit="10"/>
<path d="M38.4816 49.9948V53.7927C38.4628 54.0518 38.4063 54.5749 38.1707 55.178" stroke="#7F4EC3" stroke-width="2" stroke-miterlimit="10"/>
<path d="M38.4817 31.5377V49.9948" stroke="#7F4EC3" stroke-width="2" stroke-miterlimit="10"/>
<path d="M44.2963 26.6042C44.1408 35.5052 44.1833 42.2576 44.2963 45.2733C44.3199 45.9471 44.3906 47.2948 45.2388 48.3832C46.3649 49.8204 48.1649 49.9194 48.5419 49.9382C50.1864 50.0278 51.3927 49.2361 51.845 48.9016" stroke="#7F4EC3" stroke-width="2" stroke-miterlimit="10"/>
<path d="M39.1414 32.5H51.3314" stroke="#7F4EC3" stroke-width="2" stroke-miterlimit="10"/>
<path d="M38.4492 27.3377C39.2776 27.3377 39.9492 26.6661 39.9492 25.8377C39.9492 25.0093 39.2776 24.3377 38.4492 24.3377C37.6208 24.3377 36.9492 25.0093 36.9492 25.8377C36.9492 26.6661 37.6208 27.3377 38.4492 27.3377Z" fill="#7F4EC3"/>
<defs>
<linearGradient id="paint0_linear_213_231" x1="30" y1="10" x2="38.5" y2="72.5" gradientUnits="userSpaceOnUse">
<stop stop-color="#FF7442"/>
<stop offset="1" stop-color="#7F4EC3"/>
</linearGradient>
<linearGradient id="paint1_linear_213_231" x1="66.6475" y1="52" x2="28.6475" y2="15" gradientUnits="userSpaceOnUse">
<stop stop-color="#7F4EC3"/>
<stop offset="1" stop-color="#FF7442"/>
</linearGradient>
<clipPath id="clip0_213_231">
<rect width="90" height="81.9895" fill="white"/>
</clipPath>
</defs>
</svg>
