<svg width="100" height="98" viewBox="0 0 100 98" fill="none" xmlns="http://www.w3.org/2000/svg">
<path d="M33.4476 78.5081C33.4476 78.9113 32.9839 79.2339 32.3992 79.2339C31.7339 79.2944 31.2702 78.9718 31.2702 78.5081C31.2702 78.1048 31.7339 77.7823 32.3186 77.7823C32.9234 77.7218 33.4476 78.0444 33.4476 78.5081ZM27.1774 77.6008C27.0363 78.004 27.4395 78.4677 28.0444 78.5887C28.5686 78.7903 29.1734 78.5887 29.2944 78.1855C29.4153 77.7823 29.0323 77.3186 28.4274 77.1371C27.9032 76.996 27.3186 77.1976 27.1774 77.6008ZM36.0887 77.2581C35.504 77.3992 35.1008 77.7823 35.1613 78.246C35.2218 78.6492 35.746 78.9113 36.3508 78.7702C36.9355 78.629 37.3387 78.246 37.2782 77.8427C37.2177 77.4597 36.6734 77.1976 36.0887 77.2581ZM49.3548 0C21.3911 0 0 21.2298 0 49.1936C0 71.5524 14.0726 90.6855 34.1734 97.4194C36.754 97.8831 37.6613 96.2903 37.6613 94.9798C37.6613 93.7298 37.6008 86.8347 37.6008 82.6008C37.6008 82.6008 23.4879 85.625 20.5242 76.5927C20.5242 76.5927 18.2258 70.7258 14.9194 69.2137C14.9194 69.2137 10.3024 66.0484 15.2419 66.1089C15.2419 66.1089 20.2621 66.5121 23.0242 71.3105C27.4395 79.0927 34.8387 76.8548 37.7218 75.5242C38.1855 72.2984 39.496 70.0605 40.9476 68.7298C29.6774 67.4798 18.3065 65.8468 18.3065 46.4516C18.3065 40.9073 19.8387 38.125 23.0645 34.5766C22.5403 33.2661 20.8266 27.8629 23.5887 20.8871C27.8024 19.5766 37.5 26.3306 37.5 26.3306C41.5323 25.2016 45.8669 24.6169 50.1613 24.6169C54.4556 24.6169 58.7903 25.2016 62.8226 26.3306C62.8226 26.3306 72.5202 19.5565 76.7339 20.8871C79.496 27.8831 77.7823 33.2661 77.2581 34.5766C80.4839 38.1452 82.4597 40.9274 82.4597 46.4516C82.4597 65.9073 70.5847 67.4597 59.3145 68.7298C61.1694 70.3226 62.7419 73.3468 62.7419 78.0847C62.7419 84.879 62.6814 93.2863 62.6814 94.9395C62.6814 96.25 63.6089 97.8427 66.1694 97.379C86.3307 90.6855 100 71.5524 100 49.1936C100 21.2298 77.3186 0 49.3548 0ZM19.5968 69.5363C19.3347 69.7379 19.3952 70.2016 19.7379 70.5847C20.0605 70.9073 20.5242 71.0484 20.7863 70.7863C21.0484 70.5847 20.9879 70.121 20.6452 69.7379C20.3226 69.4153 19.8589 69.2742 19.5968 69.5363ZM17.4194 67.9032C17.2782 68.1653 17.4798 68.4879 17.8831 68.6895C18.2056 68.8911 18.6089 68.8306 18.75 68.5484C18.8911 68.2863 18.6895 67.9637 18.2863 67.7621C17.8831 67.6411 17.5605 67.7016 17.4194 67.9032ZM23.9516 75.0806C23.629 75.3427 23.75 75.9476 24.2137 76.3307C24.6774 76.7944 25.2621 76.8548 25.5242 76.5323C25.7863 76.2702 25.6653 75.6653 25.2621 75.2823C24.8186 74.8186 24.2137 74.7581 23.9516 75.0806ZM21.6532 72.1169C21.3306 72.3186 21.3306 72.8427 21.6532 73.3064C21.9758 73.7702 22.5202 73.9718 22.7823 73.7702C23.1048 73.5081 23.1048 72.9839 22.7823 72.5202C22.5 72.0565 21.9758 71.8548 21.6532 72.1169Z" fill="white"/>
</svg>
