<svg width="87" height="88" viewBox="0 0 87 88" fill="none" xmlns="http://www.w3.org/2000/svg">
<path d="M19.7645 87.3475H1.81079V29.6255H19.7645V87.3475ZM10.7645 21.8224C5.03087 21.8224 0.378357 17.0734 0.378357 11.3398C0.378357 5.60618 5.03087 0.953668 10.7645 0.953668C16.498 0.953668 21.1506 5.60618 21.1506 11.3398C21.1506 17.0734 16.498 21.8224 10.7645 21.8224ZM86.9266 87.3475H68.9923V59.2394C68.9923 52.5405 68.8571 43.9498 59.6679 43.9498C50.4787 43.9498 48.915 51.2278 48.915 58.7568V87.3475H30.9614V29.6255H48.1428V37.5405H48.3938C50.7934 33.0097 56.6583 28.2278 65.4054 28.2278C83.5965 28.2278 86.9459 40.1641 86.9459 55.666V87.3475H86.9266Z" fill="white"/>
</svg>
